#tb 0: 1/10
#media_type 0: video
#codec_id 0: rawvideo
#dimensions 0: 256x160
#sar 0: 0/1
0,          1,          1,        1,   122880, 0x4ed8123f
0,          2,          2,        1,   122880, 0xc4c35304
0,          3,          3,        1,   122880, 0xbd3015fd
0,          4,          4,        1,   122880, 0xece5dbab
0,          5,          5,        1,   122880, 0x13249f3f
0,          6,          6,        1,   122880, 0x58f75895
0,          7,          7,        1,   122880, 0xe6570f7d
0,          8,          8,        1,   122880, 0xcce88145
0,          9,          9,        1,   122880, 0x796f633c
0,         10,         10,        1,   122880, 0x182c3cd3
0,         11,         11,        1,   122880, 0x04b2513b
0,         12,         12,        1,   122880, 0x6b7e2e42
0,         13,         13,        1,   122880, 0x2fa47070
0,         14,         14,        1,   122880, 0x7142919e
0,         15,         15,        1,   122880, 0x8995337e
0,         16,         16,        1,   122880, 0x5146ca20
0,         17,         17,        1,   122880, 0x9aadb491
0,         18,         18,        1,   122880, 0x2d5b0032
0,         19,         19,        1,   122880, 0x5c7c8314
0,         20,         20,        1,   122880, 0x2ba8253c
0,         21,         21,        1,   122880, 0xd19d504b
0,         22,         22,        1,   122880, 0x4ff15fd1
0,         23,         23,        1,   122880, 0x76039f9f
0,         24,         24,        1,   122880, 0xcce84d35
0,         25,         25,        1,   122880, 0x68c5797c
0,         26,         26,        1,   122880, 0xf1da4293
0,         27,         27,        1,   122880, 0xf5f537f3
0,         28,         28,        1,   122880, 0x8d3ffa94
0,         29,         29,        1,   122880, 0x3ca9b69c
0,         30,         30,        1,   122880, 0x21187f6c
0,         31,         31,        1,   122880, 0xe5136e34
